MSHX1
GROUPS 4
LABEL Group0
MATERIAL 1
TEXTURE 1
GEOM 60 32
0.14893874526023865 0.4786972105503082 -0.0804949551820755 0.01116977445781231 0.999725341796875 0.02056947536766529 0.9763420224189758 0.0863112211227417
0.1489388644695282 -0.2821216583251953 -0.08049510419368744 -0.3818781077861786 0.600054919719696 -0.7029023170471191 0.04369639977812767 0.06958681344985962
0.15812185406684875 -0.28219032287597656 -0.06359267234802246 0.382580041885376 0.5980712175369263 0.7041841149330139 0.04217519983649254 0.01790088415145874
0.1581217348575592 0.4782465100288391 -0.06359252333641052 0.01116977445781231 0.999725341796875 0.02056947536766529 0.9765490293502808 0.01790088415145874
0.13673684000968933 0.4786972105503082 -0.07386572659015656 0.01116977445781231 0.999725341796875 0.02056947536766529 0.9780709743499756 0.06451171636581421
0.1459198296070099 0.4782465100288391 -0.05696329101920128 0.01116977445781231 0.999725341796875 0.02056947536766529 0.9765490293502808 0.022975802421569824
0.14591994881629944 -0.28219032287597656 -0.05696344003081322 0.382580041885376 0.5980712175369263 0.7041841149330139 0.04217519983649254 0.022975802421569824
0.1367369443178177 -0.2821216583251953 -0.0738658681511879 -0.4773705303668976 0.0 -0.8786889314651489 0.04369639977812767 0.06451177597045898
0.17436997592449188 -0.30176639556884766 -0.0557938851416111 -0.0016479995101690292 -0.999969482421875 -0.0030518509447574615 0.02780509926378727 0.10461199283599854
0.15123824775218964 -0.3015977144241333 -0.09837064146995544 -0.0016479995101690292 -0.999969482421875 -0.0030518509447574615 0.02830040082335472 0.073039710521698
0.12048884481191635 -0.3015977144241333 -0.08166465908288956 -0.0016479995101690292 -0.999969482421875 -0.0030518509447574615 0.018581200391054153 0.07321351766586304
0.143620565533638 -0.30176639556884766 -0.03908789902925491 -0.0016479995101690292 -0.999969482421875 -0.0030518509447574615 0.018581200391054153 0.10388201475143433
0.1511775702238083 0.13982337713241577 -0.09786650538444519 -0.011749626137316227 0.99969482421875 -0.021668141707777977 0.27751100063323975 0.3425009846687317
0.15117749571800232 0.04299306869506836 -0.09786668419837952 -0.4773705303668976 0.0 -0.8786889314651489 0.27751100063323975 0.2106800079345703
0.17391414940357208 0.04417473077774048 -0.05601710081100464 0.011810663156211376 -0.999664306640625 0.021790215745568275 0.3947649896144867 0.18429797887802124
0.17391404509544373 0.14099889993667603 -0.056017253547906876 -0.011749626137316227 0.99969482421875 -0.021668141707777977 0.43250998854637146 0.3425009846687317
0.12094461917877197 0.13982337713241577 -0.08144110441207886 -0.011749626137316227 0.99969482421875 -0.021668141707777977 0.31115201115608215 0.3425009846687317
0.1436810940504074 0.14099889993667603 -0.039591848850250244 -0.011749626137316227 0.99969482421875 -0.021668141707777977 0.39695799350738525 0.3425009846687317
0.14368118345737457 0.04417473077774048 -0.039591699838638306 0.011810663156211376 -0.999664306640625 0.021790215745568275 0.3958609998226166 0.21003198623657227
0.1209445372223854 0.04299306869506836 -0.08144128322601318 -0.4773705303668976 0.0 -0.8786889314651489 0.3113139867782593 0.21024799346923828
0.13673684000968933 0.4786972105503082 -0.07386572659015656 -0.8786889314651489 0.0 0.4773705303668976 0.9774900078773499 0.046465516090393066
0.13673684000968933 0.4786972105503082 -0.07386572659015656 -0.4773705303668976 0.0 -0.8786889314651489 0.9780709743499756 0.06451171636581421
0.1367369443178177 -0.2821216583251953 -0.0738658681511879 -0.8422803282737732 0.28293710947036743 0.4587237238883972 0.04311529919505119 0.04933309555053711
0.1367369443178177 -0.2821216583251953 -0.0738658681511879 -0.3818781077861786 0.600054919719696 -0.7029023170471191 0.04369639977812767 0.06451177597045898
0.1511775702238083 0.13982337713241577 -0.09786650538444519 0.8786889314651489 0.0 -0.4773705303668976 0.5178269743919373 0.3425009846687317
0.1511775702238083 0.13982337713241577 -0.09786650538444519 -0.4773705303668976 0.0 -0.8786889314651489 0.27751100063323975 0.3425009846687317
0.17391404509544373 0.14099889993667603 -0.056017253547906876 0.8786889314651489 0.0 -0.4773705303668976 0.43250998854637146 0.3425009846687317
0.17391404509544373 0.14099889993667603 -0.056017253547906876 0.4773705303668976 0.0 0.8786889314651489 0.43250998854637146 0.3425009846687317
0.15812185406684875 -0.28219032287597656 -0.06359267234802246 0.4773705303668976 0.0 0.8786889314651489 0.04217519983649254 0.01790088415145874
0.15812185406684875 -0.28219032287597656 -0.06359267234802246 0.843043327331543 0.2837305963039398 -0.45689260959625244 0.04191809892654419 0.09656429290771484
0.1581217348575592 0.4782465100288391 -0.06359252333641052 0.4773705303668976 0.0 0.8786889314651489 0.9765490293502808 0.01790088415145874
0.1581217348575592 0.4782465100288391 -0.06359252333641052 0.8786889314651489 0.0 -0.4773705303668976 0.9762920141220093 0.09943187236785889
0.12048884481191635 -0.3015977144241333 -0.08166465908288956 -0.7722098231315613 0.4754783809185028 0.4213995933532715 0.028579499572515488 0.06057161092758179
0.12048884481191635 -0.3015977144241333 -0.08166465908288956 -0.3818781077861786 0.600054919719696 -0.7029023170471191 0.028579499572515488 0.06057161092758179
0.143620565533638 -0.30176639556884766 -0.03908789902925491 -0.7721793055534363 0.4754783809185028 0.4214301109313965 0.02771740034222603 0.02713257074356079
0.143620565533638 -0.30176639556884766 -0.03908789902925491 0.382580041885376 0.5980712175369263 0.7041841149330139 0.02771740034222603 0.02713257074356079
0.12094461917877197 0.13982337713241577 -0.08144110441207886 -0.8786889314651489 0.0 0.4773705303668976 0.31115201115608215 0.3425009846687317
0.12094461917877197 0.13982337713241577 -0.08144110441207886 -0.4773705303668976 0.0 -0.8786889314651489 0.31115201115608215 0.3425009846687317
0.1209445372223854 0.04299306869506836 -0.08144128322601318 -0.8786889314651489 0.0 0.4773705303668976 0.3113139867782593 0.21024799346923828
0.1209445372223854 0.04299306869506836 -0.08144128322601318 0.011810663156211376 -0.999664306640625 0.021790215745568275 0.3113139867782593 0.21024799346923828
0.1459198296070099 0.4782465100288391 -0.05696329101920128 -0.8786889314651489 0.0 0.4773705303668976 0.9774389863014221 0.03334468603134155
0.1459198296070099 0.4782465100288391 -0.05696329101920128 0.4773705303668976 0.0 0.8786889314651489 0.9765490293502808 0.022975802421569824
0.15117749571800232 0.04299306869506836 -0.09786668419837952 0.8786889314651489 0.0 -0.4773705303668976 0.5178269743919373 0.2106800079345703
0.15117749571800232 0.04299306869506836 -0.09786668419837952 0.01184118166565895 -0.999664306640625 0.021790215745568275 0.3116379976272583 0.18429797887802124
0.1436810940504074 0.14099889993667603 -0.039591848850250244 0.4773705303668976 0.0 0.8786889314651489 0.39695799350738525 0.3425009846687317
0.1436810940504074 0.14099889993667603 -0.039591848850250244 -0.8786889314651489 0.0 0.4773705303668976 0.39695799350738525 0.3425009846687317
0.14368118345737457 0.04417473077774048 -0.039591699838638306 0.4773705303668976 0.0 0.8786889314651489 0.3958609998226166 0.21003198623657227
0.14368118345737457 0.04417473077774048 -0.039591699838638306 -0.8786889314651489 0.0 0.4773705303668976 0.3958609998226166 0.21003198623657227
0.15123824775218964 -0.3015977144241333 -0.09837064146995544 -0.3818781077861786 0.600054919719696 -0.7029023170471191 0.02830040082335472 0.073039710521698
0.15123824775218964 -0.3015977144241333 -0.09837064146995544 0.773796796798706 0.4754783809185028 -0.41846978664398193 0.02830040082335472 0.073039710521698
0.14893874526023865 0.4786972105503082 -0.0804949551820755 0.8786889314651489 0.0 -0.4773705303668976 0.9763420224189758 0.0863112211227417
0.14893874526023865 0.4786972105503082 -0.0804949551820755 -0.4773705303668976 0.0 -0.8786889314651489 0.9780709743499756 0.06958669424057007
0.17436997592449188 -0.30176639556884766 -0.0557938851416111 0.382580041885376 0.5980712175369263 0.7041841149330139 0.02727239951491356 0.014046311378479004
0.17436997592449188 -0.30176639556884766 -0.0557938851416111 0.773766279220581 0.4755088984966278 -0.4185003340244293 0.02780509926378727 0.10461199283599854
0.17391414940357208 0.04417473077774048 -0.05601710081100464 0.4773705303668976 0.0 0.8786889314651489 0.43250998854637146 0.2106800079345703
0.17391414940357208 0.04417473077774048 -0.05601710081100464 0.8786889314651489 0.0 -0.4773705303668976 0.43250998854637146 0.2106800079345703
0.1489388644695282 -0.2821216583251953 -0.08049510419368744 0.843256950378418 0.28290659189224243 -0.45698416233062744 0.04196830093860626 0.0834435224533081
0.1489388644695282 -0.2821216583251953 -0.08049510419368744 -0.4773705303668976 0.0 -0.8786889314651489 0.04369639977812767 0.06958681344985962
0.14591994881629944 -0.28219032287597656 -0.05696344003081322 -0.8420667052268982 0.2837611138820648 0.4586321711540222 0.04306510090827942 0.03621232509613037
0.14591994881629944 -0.28219032287597656 -0.05696344003081322 0.4773705303668976 0.0 0.8786889314651489 0.04217519983649254 0.022975802421569824
46 27 44
27 46 54
58 20 22
20 58 40
55 24 26
24 55 42
30 59 28
59 30 41
57 21 51
21 57 7
47 36 38
36 47 45
14 39 43
39 14 18
13 37 25
37 13 19
29 49 56
49 29 53
1 33 23
33 1 48
22 34 58
34 22 32
6 52 2
52 6 35
10 8 11
8 10 9
29 50 31
50 29 56
15 16 17
16 15 12
0 5 3
5 0 4
LABEL Group1
MATERIAL 1
TEXTURE 1
GEOM 60 32
0.009478624910116196 0.47850626707077026 0.18512651324272156 -0.00357066560536623 0.999969482421875 -0.0 0.9763420224189758 0.0863112211227417
0.009478624910116196 -0.28212153911590576 0.1851262003183365 0.7999511957168579 0.600054919719696 -0.0 0.04369639977812767 0.06958681344985962
-0.00975726917386055 -0.28219032287597656 0.1851262003183365 -0.8014160394668579 0.5980712175369263 -0.0 0.04217519983649254 0.01790088415145874
-0.00975726917386055 0.47843748331069946 0.18512651324272156 -0.00357066560536623 0.999969482421875 -0.0 0.9765490293502808 0.01790088415145874
0.009478624910116196 0.47850629687309265 0.17124007642269135 -0.00357066560536623 0.999969482421875 -0.0 0.9780709743499756 0.06451171636581421
-0.00975726917386055 0.47843748331069946 0.17124007642269135 -0.00357066560536623 0.999969482421875 -0.0 0.9765490293502808 0.022975802421569824
-0.00975726917386055 -0.28219032287597656 0.17123976349830627 -0.8014160394668579 0.5980712175369263 -0.0 0.04217519983649254 0.022975802421569824
0.009478624910116196 -0.28212153911590576 0.17123976349830627 0.999969482421875 0.0 -0.0 0.04369639977812767 0.06451177597045898
-0.02436666563153267 -0.30176639556884766 0.19568023085594177 0.003479110077023506 -0.999969482421875 -0.0 0.02780509926378727 0.10461199283599854
0.024088021367788315 -0.3015977144241333 0.19568023085594177 0.003479110077023506 -0.999969482421875 -0.0 0.02830040082335472 0.073039710521698
0.024088021367788315 -0.3015977144241333 0.1606857180595398 0.003479110077023506 -0.999969482421875 -0.0 0.018581200391054153 0.07321351766586304
-0.02436666563153267 -0.30176639556884766 0.1606857180595398 0.003479110077023506 -0.999969482421875 -0.0 0.018581200391054153 0.10388201475143433
0.023674050346016884 0.13982349634170532 0.19538652896881104 0.02465895563364029 0.99969482421875 -0.0 0.27751100063323975 0.3425009846687317
0.023674240335822105 0.04299306869506836 0.19538649916648865 1.0 0.0 -0.0 0.27751100063323975 0.2106800079345703
-0.02395288273692131 0.04417473077774048 0.19538649916648865 -0.024781029671430588 -0.999664306640625 -0.0 0.3947649896144867 0.18429797887802124
-0.023952694609761238 0.14099889993667603 0.19538652896881104 0.02465895563364029 0.99969482421875 -0.0 0.43250998854637146 0.3425009846687317
0.023674050346016884 0.13982349634170532 0.160979762673378 0.02465895563364029 0.99969482421875 -0.0 0.31115201115608215 0.3425009846687317
-0.023952694609761238 0.14099889993667603 0.160979762673378 0.02465895563364029 0.99969482421875 -0.0 0.39695799350738525 0.3425009846687317
-0.02395288273692131 0.04417473077774048 0.1609797328710556 -0.024781029671430588 -0.999664306640625 -0.0 0.3958609998226166 0.21003198623657227
0.023674240335822105 0.04299306869506836 0.1609797328710556 1.0 0.0 -0.0 0.3113139867782593 0.21024799346923828
0.009478624910116196 0.47850629687309265 0.17124007642269135 -0.0 0.0 -1.0 0.9774900078773499 0.046465516090393066
0.009478624910116196 0.47850629687309265 0.17124007642269135 1.0 0.0 -0.0 0.9780709743499756 0.06451171636581421
0.009478624910116196 -0.28212153911590576 0.17123976349830627 -0.0009765923023223877 0.28293710947036743 -0.9591051936149597 0.04311529919505119 0.04933309555053711
0.009478624910116196 -0.28212153911590576 0.17123976349830627 0.7999511957168579 0.600054919719696 -0.0 0.04369639977812767 0.06451177597045898
0.023674050346016884 0.13982349634170532 0.19538652896881104 -0.0 0.0 1.0 0.5178269743919373 0.3425009846687317
0.023674050346016884 0.13982349634170532 0.19538652896881104 1.0 0.0 -0.0 0.27751100063323975 0.3425009846687317
-0.023952694609761238 0.14099889993667603 0.19538652896881104 -0.0 0.0 1.0 0.43250998854637146 0.3425009846687317
-0.023952694609761238 0.14099889993667603 0.19538652896881104 -1.0 0.0 -0.0 0.43250998854637146 0.3425009846687317
-0.00975726917386055 -0.28219032287597656 0.1851262003183365 -1.0 0.0 -0.0 0.04217519983649254 0.01790088415145874
-0.00975726917386055 -0.28219032287597656 0.1851262003183365 -0.0009765923023223877 0.2837305963039398 0.9588915705680847 0.04191809892654419 0.09656429290771484
-0.00975726917386055 0.47843748331069946 0.18512651324272156 -1.0 0.0 -0.0 0.9765490293502808 0.01790088415145874
-0.00975726917386055 0.47843748331069946 0.18512651324272156 -0.0 0.0 1.0 0.9762920141220093 0.09943187236785889
0.024088021367788315 -0.3015977144241333 0.1606857180595398 -0.0016479995101690292 0.4754478633403778 -0.8796960115432739 0.028579499572515488 0.06057161092758179
0.024088021367788315 -0.3015977144241333 0.1606857180595398 0.7999511957168579 0.600054919719696 -0.0 0.028579499572515488 0.06057161092758179
-0.02436666563153267 -0.30176639556884766 0.1606857180595398 -0.0016479995101690292 0.4754783809185028 -0.8796960115432739 0.02771740034222603 0.02713257074356079
-0.02436666563153267 -0.30176639556884766 0.1606857180595398 -0.8014160394668579 0.5980712175369263 -0.0 0.02771740034222603 0.02713257074356079
0.023674050346016884 0.13982349634170532 0.160979762673378 -0.0 0.0 -1.0 0.31115201115608215 0.3425009846687317
0.023674050346016884 0.13982349634170532 0.160979762673378 1.0 0.0 -0.0 0.31115201115608215 0.3425009846687317
0.023674240335822105 0.04299306869506836 0.1609797328710556 -0.0 0.0 -1.0 0.3113139867782593 0.21024799346923828
0.023674240335822105 0.04299306869506836 0.1609797328710556 -0.024781029671430588 -0.999664306640625 -0.0 0.3113139867782593 0.21024799346923828
-0.00975726917386055 0.47843748331069946 0.17124007642269135 -0.0 0.0 -1.0 0.9774389863014221 0.03334468603134155
-0.00975726917386055 0.47843748331069946 0.17124007642269135 -1.0 0.0 -0.0 0.9765490293502808 0.022975802421569824
0.023674240335822105 0.04299306869506836 0.19538649916648865 -0.0 0.0 1.0 0.5178269743919373 0.2106800079345703
0.023674240335822105 0.04299306869506836 0.19538649916648865 -0.024781029671430588 -0.999664306640625 -0.0 0.3116379976272583 0.18429797887802124
-0.023952694609761238 0.14099889993667603 0.160979762673378 -1.0 0.0 -0.0 0.39695799350738525 0.3425009846687317
-0.023952694609761238 0.14099889993667603 0.160979762673378 -0.0 0.0 -1.0 0.39695799350738525 0.3425009846687317
-0.02395288273692131 0.04417473077774048 0.1609797328710556 -1.0 0.0 -0.0 0.3958609998226166 0.21003198623657227
-0.02395288273692131 0.04417473077774048 0.1609797328710556 -0.0 0.0 -1.0 0.3958609998226166 0.21003198623657227
0.024088021367788315 -0.3015977144241333 0.19568023085594177 0.7999511957168579 0.600054919719696 -0.0 0.02830040082335472 0.073039710521698
0.024088021367788315 -0.3015977144241333 0.19568023085594177 -0.0016479995101690292 0.4754783809185028 0.8796960115432739 0.02830040082335472 0.073039710521698
0.009478624910116196 0.47850626707077026 0.18512651324272156 -0.0 0.0 1.0 0.9763420224189758 0.0863112211227417
0.009478624910116196 0.47850626707077026 0.18512651324272156 1.0 0.0 -0.0 0.9780709743499756 0.06958669424057007
-0.02436666563153267 -0.30176639556884766 0.19568023085594177 -0.8014160394668579 0.5980712175369263 -0.0 0.02727239951491356 0.014046311378479004
-0.02436666563153267 -0.30176639556884766 0.19568023085594177 -0.0016479995101690292 0.4755088984966278 0.8796960115432739 0.02780509926378727 0.10461199283599854
-0.02395288273692131 0.04417473077774048 0.19538649916648865 -1.0 0.0 -0.0 0.43250998854637146 0.2106800079345703
-0.02395288273692131 0.04417473077774048 0.19538649916648865 -0.0 0.0 1.0 0.43250998854637146 0.2106800079345703
0.009478624910116196 -0.28212153911590576 0.1851262003183365 -0.0010071108117699623 0.28290659189224243 0.9591357111930847 0.04196830093860626 0.0834435224533081
0.009478624910116196 -0.28212153911590576 0.1851262003183365 1.0 0.0 -0.0 0.04369639977812767 0.06958681344985962
-0.00975726917386055 -0.28219032287597656 0.17123976349830627 -0.0010071108117699623 0.2837611138820648 -0.9588610529899597 0.04306510090827942 0.03621232509613037
-0.00975726917386055 -0.28219032287597656 0.17123976349830627 -1.0 0.0 -0.0 0.04217519983649254 0.022975802421569824
46 27 44
27 46 54
58 20 22
20 58 40
55 24 26
24 55 42
30 59 28
59 30 41
57 21 51
21 57 7
47 36 38
36 47 45
14 39 43
39 14 18
13 37 25
37 13 19
29 49 56
49 29 53
1 33 23
33 1 48
22 34 58
34 22 32
6 52 2
52 6 35
10 8 11
8 10 9
29 50 31
50 29 56
15 16 17
16 15 12
0 5 3
5 0 4
LABEL Group2
MATERIAL 1
TEXTURE 1
GEOM 60 32
-0.16045568883419037 0.47820907831192017 -0.06008421629667282 -0.01303140353411436 0.999603271484375 0.023987548425793648 0.9763420224189758 0.0863112211227417
-0.16045580804347992 -0.28212153911590576 -0.06008436158299446 -0.3818781077861786 0.600054919719696 0.7029023170471191 0.04369639977812767 0.06958681344985962
-0.15127280354499817 -0.28219032287597656 -0.07698678970336914 0.382580041885376 0.5980712175369263 -0.7041841149330139 0.04217519983649254 0.01790088415145874
-0.1512726992368698 0.47873467206954956 -0.0769866481423378 -0.01303140353411436 0.999603271484375 0.023987548425793648 0.9765490293502808 0.01790088415145874
-0.14825378358364105 0.47820907831192017 -0.05345498397946358 -0.01303140353411436 0.999603271484375 0.023987548425793648 0.9780709743499756 0.06451171636581421
-0.1390707790851593 0.47873467206954956 -0.07035741209983826 -0.01303140353411436 0.999603271484375 0.023987548425793648 0.9765490293502808 0.022975802421569824
-0.13907089829444885 -0.28219032287597656 -0.0703575611114502 0.382580041885376 0.5980712175369263 -0.7041841149330139 0.04217519983649254 0.022975802421569824
-0.1482539027929306 -0.28212153911590576 -0.05345512926578522 -0.4773705303668976 0.0 0.8786889314651489 0.04369639977812767 0.06451177597045898
-0.1535722017288208 -0.30176639556884766 -0.09486234188079834 -0.0016479995101690292 -0.999969482421875 0.0030518509447574615 0.02780509926378727 0.10461199283599854
-0.17670391499996185 -0.3015977144241333 -0.0522855781018734 -0.0016479995101690292 -0.999969482421875 0.0030518509447574615 0.02830040082335472 0.073039710521698
-0.14595451951026917 -0.3015977144241333 -0.03557959571480751 -0.0016479995101690292 -0.999969482421875 0.0030518509447574615 0.018581200391054153 0.07321351766586304
-0.12282279133796692 -0.30176639556884766 -0.07815635204315186 -0.0016479995101690292 -0.999969482421875 0.0030518509447574615 0.018581200391054153 0.10388201475143433
-0.1762479990720749 0.13982337713241577 -0.052508946508169174 -0.011749626137316227 0.99969482421875 0.021668141707777977 0.27751100063323975 0.3425009846687317
-0.17624810338020325 0.042993009090423584 -0.05250879377126694 -0.4773705303668976 0.0 0.8786889314651489 0.27751100063323975 0.2106800079345703
-0.15351144969463348 0.04417473077774048 -0.09435837715864182 0.01184118166565895 -0.999664306640625 -0.021790215745568275 0.3947649896144867 0.18429797887802124
-0.15351152420043945 0.14099889993667603 -0.09435819834470749 -0.011749626137316227 0.99969482421875 0.021668141707777977 0.43250998854637146 0.3425009846687317
-0.14601503312587738 0.13982337713241577 -0.03608354181051254 -0.011749626137316227 0.99969482421875 0.021668141707777977 0.31115201115608215 0.3425009846687317
-0.12327856570482254 0.14099889993667603 -0.07793279737234116 -0.011749626137316227 0.99969482421875 0.021668141707777977 0.39695799350738525 0.3425009846687317
-0.12327848374843597 0.04417473077774048 -0.07793297618627548 0.01184118166565895 -0.999664306640625 -0.021790215745568275 0.3958609998226166 0.21003198623657227
-0.14601513743400574 0.042993009090423584 -0.036083392798900604 -0.4773705303668976 0.0 0.8786889314651489 0.3113139867782593 0.21024799346923828
-0.14825378358364105 0.47820907831192017 -0.05345498397946358 0.8786889314651489 0.0 0.4773705303668976 0.9774900078773499 0.046465516090393066
-0.14825378358364105 0.47820907831192017 -0.05345498397946358 -0.4773705303668976 0.0 0.8786889314651489 0.9780709743499756 0.06451171636581421
-0.1482539027929306 -0.28212153911590576 -0.05345512926578522 0.843226432800293 0.28293710947036743 0.45698416233062744 0.04311529919505119 0.04933309555053711
-0.1482539027929306 -0.28212153911590576 -0.05345512926578522 -0.3818781077861786 0.600054919719696 0.7029023170471191 0.04369639977812767 0.06451177597045898
-0.1762479990720749 0.13982337713241577 -0.052508946508169174 -0.8786889314651489 0.0 -0.4773705303668976 0.5178269743919373 0.3425009846687317
-0.1762479990720749 0.13982337713241577 -0.052508946508169174 -0.4773705303668976 0.0 0.8786889314651489 0.27751100063323975 0.3425009846687317
-0.15351152420043945 0.14099889993667603 -0.09435819834470749 -0.8786889314651489 0.0 -0.4773705303668976 0.43250998854637146 0.3425009846687317
-0.15351152420043945 0.14099889993667603 -0.09435819834470749 0.4773705303668976 0.0 -0.8786889314651489 0.43250998854637146 0.3425009846687317
-0.15127280354499817 -0.28219032287597656 -0.07698678970336914 0.4773705303668976 0.0 -0.8786889314651489 0.04217519983649254 0.01790088415145874
-0.15127280354499817 -0.28219032287597656 -0.07698678970336914 -0.8420972228050232 0.2837305963039398 -0.4586321711540222 0.04191809892654419 0.09656429290771484
-0.1512726992368698 0.47873467206954956 -0.0769866481423378 0.4773705303668976 0.0 -0.8786889314651489 0.9765490293502808 0.01790088415145874
-0.1512726992368698 0.47873467206954956 -0.0769866481423378 -0.8786889314651489 0.0 -0.4773705303668976 0.9762920141220093 0.09943187236785889
-0.14595451951026917 -0.3015977144241333 -0.03557959571480751 0.773796796798706 0.4754478633403778 0.4185003340244293 0.028579499572515488 0.06057161092758179
-0.14595451951026917 -0.3015977144241333 -0.03557959571480751 -0.3818781077861786 0.600054919719696 0.7029023170471191 0.028579499572515488 0.06057161092758179
-0.12282279133796692 -0.30176639556884766 -0.07815635204315186 0.773766279220581 0.4754783809185028 0.41846978664398193 0.02771740034222603 0.02713257074356079
-0.12282279133796692 -0.30176639556884766 -0.07815635204315186 0.382580041885376 0.5980712175369263 -0.7041841149330139 0.02771740034222603 0.02713257074356079
-0.14601503312587738 0.13982337713241577 -0.03608354181051254 0.8786889314651489 0.0 0.4773705303668976 0.31115201115608215 0.3425009846687317
-0.14601503312587738 0.13982337713241577 -0.03608354181051254 -0.4773705303668976 0.0 0.8786889314651489 0.31115201115608215 0.3425009846687317
-0.14601513743400574 0.042993009090423584 -0.036083392798900604 0.8786889314651489 0.0 0.4773705303668976 0.3113139867782593 0.21024799346923828
-0.14601513743400574 0.042993009090423584 -0.036083392798900604 0.01184118166565895 -0.999664306640625 -0.021790215745568275 0.3113139867782593 0.21024799346923828
-0.1390707790851593 0.47873467206954956 -0.07035741209983826 0.8786889314651489 0.0 0.4773705303668976 0.9774389863014221 0.03334468603134155
-0.1390707790851593 0.47873467206954956 -0.07035741209983826 0.4773705303668976 0.0 -0.8786889314651489 0.9765490293502808 0.022975802421569824
-0.17624810338020325 0.042993009090423584 -0.05250879377126694 -0.8786889314651489 0.0 -0.4773705303668976 0.5178269743919373 0.2106800079345703
-0.17624810338020325 0.042993009090423584 -0.05250879377126694 0.01184118166565895 -0.999664306640625 -0.021790215745568275 0.3116379976272583 0.18429797887802124
-0.12327856570482254 0.14099889993667603 -0.07793279737234116 0.4773705303668976 0.0 -0.8786889314651489 0.39695799350738525 0.3425009846687317
-0.12327856570482254 0.14099889993667603 -0.07793279737234116 0.8786889314651489 0.0 0.4773705303668976 0.39695799350738525 0.3425009846687317
-0.12327848374843597 0.04417473077774048 -0.07793297618627548 0.4773705303668976 0.0 -0.8786889314651489 0.3958609998226166 0.21003198623657227
-0.12327848374843597 0.04417473077774048 -0.07793297618627548 0.8786889314651489 0.0 0.4773705303668976 0.3958609998226166 0.21003198623657227
-0.17670391499996185 -0.3015977144241333 -0.0522855781018734 -0.3818781077861786 0.600054919719696 0.7029023170471191 0.02830040082335472 0.073039710521698
-0.17670391499996185 -0.3015977144241333 -0.0522855781018734 -0.7721793055534363 0.4754783809185028 -0.4214301109313965 0.02830040082335472 0.073039710521698
-0.16045568883419037 0.47820907831192017 -0.06008421629667282 -0.8786889314651489 0.0 -0.4773705303668976 0.9763420224189758 0.0863112211227417
-0.16045568883419037 0.47820907831192017 -0.06008421629667282 -0.4773705303668976 0.0 0.8786889314651489 0.9780709743499756 0.06958669424057007
-0.1535722017288208 -0.30176639556884766 -0.09486234188079834 0.382580041885376 0.5980712175369263 -0.7041841149330139 0.02727239951491356 0.014046311378479004
-0.1535722017288208 -0.30176639556884766 -0.09486234188079834 -0.7721793055534363 0.4755088984966278 -0.4213995933532715 0.02780509926378727 0.10461199283599854
-0.15351144969463348 0.04417473077774048 -0.09435837715864182 0.4773705303668976 0.0 -0.8786889314651489 0.43250998854637146 0.2106800079345703
-0.15351144969463348 0.04417473077774048 -0.09435837715864182 -0.8786889314651489 0.0 -0.4773705303668976 0.43250998854637146 0.2106800079345703
-0.16045580804347992 -0.28212153911590576 -0.06008436158299446 -0.8422803282737732 0.28290659189224243 -0.4587542414665222 0.04196830093860626 0.0834435224533081
-0.16045580804347992 -0.28212153911590576 -0.06008436158299446 -0.4773705303668976 0.0 0.8786889314651489 0.04369639977812767 0.06958681344985962
-0.13907089829444885 -0.28219032287597656 -0.0703575611114502 0.843043327331543 0.2837611138820648 0.45686209201812744 0.04306510090827942 0.03621232509613037
-0.13907089829444885 -0.28219032287597656 -0.0703575611114502 0.4773705303668976 0.0 -0.8786889314651489 0.04217519983649254 0.022975802421569824
46 27 44
27 46 54
58 20 22
20 58 40
55 24 26
24 55 42
30 59 28
59 30 41
57 21 51
21 57 7
47 36 38
36 47 45
14 39 43
39 14 18
13 37 25
37 13 19
29 49 56
49 29 53
1 33 23
33 1 48
22 34 58
34 22 32
6 52 2
52 6 35
10 8 11
8 10 9
29 50 31
50 29 56
15 16 17
16 15 12
0 5 3
5 0 4
LABEL Group3
MATERIAL 1
TEXTURE 1
GEOM 348 186
-0.09288336336612701 0.46622976660728455 0.1713358610868454 -0.0 1.0 -0.0 0.02195120044052601 0.7821750044822693
0.09260472655296326 0.46622976660728455 0.1713358610868454 -0.0 1.0 -0.0 0.02195120044052601 0.8680520057678223
0.18534864485263824 0.46622979640960693 0.010700187645852566 -0.0 1.0 -0.0 0.103023000061512 0.9109909981489182
0.09260472655296326 0.4662298262119293 -0.14994174242019653 -0.0 1.0 -0.0 0.18409499526023865 0.8680520057678223
-0.09288336336612701 0.4662298262119293 -0.14994174242019653 -0.0 1.0 -0.0 0.18409499526023865 0.7821750044822693
-0.1856277883052826 -0.282234787940979 0.010700065642595291 -0.0 -1.0 -0.0 0.103023000061512 0.7392370104789734
-0.09288336336612701 -0.2822348177433014 0.17133574187755585 -0.0 -1.0 -0.0 0.02195120044052601 0.7821750044822693
0.09260472655296326 -0.2822348177433014 0.17133574187755585 -0.0 -1.0 -0.0 0.02195120044052601 0.8680520057678223
0.18534864485263824 -0.282234787940979 0.010700065642595291 0.8660237193107605 0.0 -0.4999847412109375 0.5269560217857361 0.3613319993019104
0.09260472655296326 -0.2822347581386566 -0.14994186162948608 -0.0 -1.0 -0.0 0.18409499526023865 0.8680520057678223
-0.09288336336612701 -0.2822347581386566 -0.14994186162948608 -0.0 -1.0 -0.0 0.18409499526023865 0.7821750044822693
0.027918720617890358 0.5019558072090149 0.13627901673316956 -0.0 1.0 -0.0 0.1466740071773529 0.17294299602508545
0.027918720617890358 0.46622970700263977 0.0920560359954834 -0.0 0.7778557538986206 -0.6284066438674927 0.22346000373363495 0.17279702425003052
-0.028197363018989563 0.46622970700263977 0.0920560359954834 -0.0 0.7778557538986206 -0.6284066438674927 0.22346000373363495 0.2734609842300415
-0.028197363018989563 0.5019558072090149 0.13627901673316956 -0.0 1.0 -0.0 0.1466740071773529 0.27285701036453247
0.027918720617890358 0.5019558072090149 0.17135471105575562 -0.0 1.0 -0.0 0.08606600016355515 0.17290401458740234
-0.028197363018989563 0.5019558072090149 0.17135471105575562 -0.0 1.0 -0.0 0.08606600016355515 0.27306801080703735
-0.028197363018989563 0.46622970700263977 0.17135471105575562 -0.0 0.0 1.0 0.04840109869837761 0.2734900116920471
0.027918720617890358 0.46622970700263977 0.17135471105575562 -0.0 0.0 1.0 0.04840109869837761 0.17282599210739136
-0.015749594196677208 -0.2038114219903946 0.03919835016131401 -0.8659932017326355 0.0 0.5000152587890625 0.7530710101127625 0.2508469820022583
0.04052168130874634 -0.2038114219903946 0.0067110792733728886 0.8659932017326355 0.0 -0.4999847412109375 0.7530710101127625 0.15833497047424316
0.02176458202302456 -0.2038114219903946 -0.025776192545890808 0.8659932017326355 0.0 -0.4999847412109375 0.7530710101127625 0.18146300315856934
-0.03450693190097809 -0.2038114219903946 0.0067110792733728886 -0.4999847412109375 0.0 -0.8660237193107605 0.7530710101127625 0.2277190089225769
-0.03450693190097809 -0.5509732961654663 0.006711022462695837 -0.4999847412109375 0.0 -0.8660237193107605 0.9796350002288818 0.2277190089225769
-0.015749594196677208 -0.5509732961654663 0.039198294281959534 -0.8659932017326355 0.0 0.5000152587890625 0.9796350002288818 0.2508469820022583
0.04052168130874634 -0.5509732961654663 0.006711022462695837 0.8659932017326355 0.0 -0.4999847412109375 0.9796350002288818 0.15833497047424316
0.02176458202302456 -0.5509732961654663 -0.025776248425245285 0.8659932017326355 0.0 -0.4999847412109375 0.9796350002288818 0.18146300315856934
-0.06105821952223778 -0.5085760354995728 0.006711029447615147 -0.0 1.0 -0.0 0.19717399775981903 0.9214550033211708
-0.0290254857391119 -0.5085760354995728 0.06219453364610672 -0.0 1.0 -0.0 0.19717399775981903 0.9773210007697344
-0.0290254857391119 -0.5938833951950073 0.062194518744945526 -0.0 -1.0 -0.0 0.06307650357484818 0.9130019992589951
-0.06105821952223778 -0.5938833951950073 0.006711015477776527 -0.8660237193107605 0.0 -0.4999847412109375 0.2785109877586365 0.9214550033211708
0.03504041209816933 -0.5085760354995728 0.06219453364610672 -0.0 1.0 -0.0 0.19717399775981903 0.6979910135269165
0.03504041209816933 -0.5938833951950073 0.062194518744945526 0.8660237193107605 0.0 0.4999847412109375 0.2785109877586365 0.6979910135269165
0.06707333028316498 -0.5085760354995728 0.006711029447615147 -0.0 1.0 -0.0 0.19717399775981903 0.7538570016622543
0.06707333028316498 -0.5938833951950073 0.006711015477776527 0.8660237193107605 0.0 -0.4999847412109375 0.2785109877586365 0.7538570016622543
0.03504040092229843 -0.5085760354995728 -0.0487724207341671 -0.0 1.0 -0.0 0.19717399775981903 0.8097230046987534
0.03504040092229843 -0.5938833951950073 -0.04877243563532829 -0.0 0.0 -1.0 0.2785109877586365 0.8097230046987534
-0.0290254857391119 -0.5085760354995728 -0.0487724207341671 -0.0 1.0 -0.0 0.19717399775981903 0.8655889928340912
-0.0290254857391119 -0.5938833951950073 -0.04877243563532829 -0.8660237193107605 0.0 -0.4999847412109375 0.2785109877586365 0.8655889928340912
-0.14142674207687378 -0.2711305022239685 0.007686449680477381 -0.9238563179969788 0.0 0.382671594619751 0.8671820163726807 0.3210369944572449
-0.09983412176370621 -0.2711305320262909 0.10809944570064545 -0.9238563179969788 0.0 0.382671594619751 0.9229559898376465 0.3210369944572449
0.0005790770519524813 -0.2711305320262909 0.14969013631343842 0.382641077041626 0.0 0.9238563179969788 0.5325369834899902 0.3210369944572449
0.10099239647388458 -0.2711305320262909 0.10809944570064545 0.382641077041626 0.0 0.9238563179969788 0.5883110165596008 0.3210369944572449
0.14258435368537903 -0.2711305022239685 0.007686449680477381 0.9238563179969788 0.0 0.382671594619751 0.6440849900245667 0.3210369944572449
0.10099239647388458 -0.2711304724216461 -0.09272649884223938 0.382702112197876 0.0 -0.9238563179969788 0.6998590230941772 0.3210369944572449
0.0005790770519524813 -0.2711304724216461 -0.13432347774505615 0.382702112197876 0.0 -0.9238563179969788 0.7556340098381042 0.3210369944572449
-0.09983412176370621 -0.2711304724216461 -0.09272649884223938 -0.9238563179969788 0.0 -0.382671594619751 0.8114079833030701 0.3210369944572449
-0.14142674207687378 -0.32572633028030396 0.007686440832912922 -0.0 -1.0 -0.0 0.10579200088977814 0.5493510067462921
-0.09983412176370621 -0.32572636008262634 0.10809943825006485 -0.0 -1.0 -0.0 0.04318059980869293 0.573403000831604
0.0005790770519524813 -0.32572636008262634 0.14969012141227722 0.382641077041626 0.0 0.9238563179969788 0.5325369834899902 0.2716060280799866
0.10099239647388458 -0.32572636008262634 0.10809943825006485 -0.0 -1.0 -0.0 0.04318059980869293 0.6895399987697601
0.14258435368537903 -0.32572633028030396 0.007686440832912922 0.9238563179969788 0.0 -0.382671594619751 0.6440849900245667 0.2716060280799866
0.10099239647388458 -0.32572630047798157 -0.09272650629281998 0.9238563179969788 0.0 -0.382671594619751 0.6998590230941772 0.2716060280799866
0.0005790770519524813 -0.32572630047798157 -0.13432349264621735 -0.382702112197876 0.0 -0.9238563179969788 0.7556340098381042 0.2716060280799866
-0.09983412176370621 -0.32572630047798157 -0.09272650629281998 -0.382702112197876 0.0 -0.9238563179969788 0.8114079833030701 0.2716060280799866
-0.13011495769023895 -0.32572633028030396 0.007686440832912922 0.9238563179969788 0.0 0.382671594619751 0.8671820163726807 0.2716060280799866
-0.09183547645807266 -0.32572636008262634 0.10009639710187912 0.9238563179969788 0.0 -0.382671594619751 0.9229559898376465 0.2716060280799866
0.0005790770519524813 -0.32572636008262634 0.1383795440196991 -0.382702112197876 0.0 -0.9238563179969788 0.5325369834899902 0.2716060280799866
0.09299387782812119 -0.32572636008262634 0.10009639710187912 -0.9238563179969788 0.0 -0.382671594619751 0.5883110165596008 0.2716060280799866
0.13127321004867554 -0.32572633028030396 0.007686440832912922 -0.9238563179969788 0.0 -0.382671594619751 0.6440849900245667 0.2716060280799866
0.09299381077289581 -0.32572633028030396 -0.08472972363233566 -0.382702112197876 0.0 0.9238563179969788 0.6998590230941772 0.2716060280799866
0.0005790770519524813 -0.32572630047798157 -0.12301293760538101 -0.382702112197876 0.0 0.9238563179969788 0.7556340098381042 0.2716060280799866
-0.09183547645807266 -0.32572633028030396 -0.08472972363233566 0.9238563179969788 0.0 0.382671594619751 0.8114079833030701 0.2716060280799866
-0.13011495769023895 -0.24764667451381683 0.007686453405767679 0.9238563179969788 0.0 0.382671594619751 0.8671820163726807 0.3422960042953491
-0.09183547645807266 -0.24764668941497803 0.10009641200304031 0.382702112197876 0.0 -0.9238563179969788 0.9229559898376465 0.3422960042953491
0.0005790770519524813 -0.24764670431613922 0.1383795589208603 -0.382702112197876 0.0 -0.9238563179969788 0.5325369834899902 0.3422960042953491
0.09299387782812119 -0.24764668941497803 0.10009641200304031 -0.382702112197876 0.0 -0.9238563179969788 0.5883110165596008 0.3422960042953491
0.13127321004867554 -0.24764667451381683 0.007686453405767679 -0.9238563179969788 0.0 0.382671594619751 0.6440849900245667 0.3422960042953491
0.09299381077289581 -0.24764665961265564 -0.08472970873117447 -0.382702112197876 0.0 0.9238563179969788 0.6998590230941772 0.3422960042953491
0.0005790770519524813 -0.24764665961265564 -0.12301292270421982 0.382702112197876 0.0 0.9238563179969788 0.7556340098381042 0.3422960042953491
-0.09183547645807266 -0.24764665961265564 -0.08472970873117447 0.9238563179969788 0.0 0.382671594619751 0.8114079833030701 0.3422960042953491
0.07850002497434616 0.44674739241600037 -0.1478472203016281 1.0 0.0 -0.0 0.0076025198213756084 0.4791100025177002
0.012000766582787037 0.44674739241600037 -0.1478472203016281 -1.0 0.0 -0.0 0.18985100090503693 0.4791100025177002
0.07850002497434616 0.35749492049217224 -0.1478472352027893 0.999969482421875 0.0 -0.0 0.0076025198213756084 0.3920130133628845
0.012000766582787037 0.35749492049217224 -0.1478472352027893 -0.999969482421875 0.0 -0.0 0.18985100090503693 0.3920130133628845
0.07850002497434616 0.44674739241600037 -0.17759594321250916 -0.0 1.0 -0.0 0.050633400678634644 0.4791100025177002
0.012000766582787037 0.44674739241600037 -0.17759594321250916 -0.0 1.0 -0.0 0.14681999385356903 0.4791100025177002
0.07850002497434616 0.35749492049217224 -0.17759595811367035 1.0 0.0 -0.0 0.050633400678634644 0.3920130133628845
0.012000766582787037 0.35749492049217224 -0.17759595811367035 -0.0 -1.0 -0.0 0.14681999385356903 0.3920130133628845
-0.0151361133903265 0.44674739241600037 -0.17759594321250916 -0.0 1.0 -0.0 0.050633400678634644 0.4791100025177002
-0.08163537085056305 0.44674739241600037 -0.17759594321250916 -0.999969482421875 0.0 -0.0 0.14681999385356903 0.4791100025177002
-0.08163537085056305 0.35749492049217224 -0.17759595811367035 -0.0 -1.0 -0.0 0.14681999385356903 0.3920130133628845
-0.0151361133903265 0.35749492049217224 -0.17759595811367035 1.0 0.0 -0.0 0.050633400678634644 0.3920130133628845
-0.0151361133903265 0.44674739241600037 -0.1478472203016281 1.0 0.0 -0.0 0.0076025198213756084 0.4791100025177002
-0.08163537085056305 0.44674739241600037 -0.1478472203016281 -1.0 0.0 -0.0 0.18985100090503693 0.4791100025177002
-0.08163537085056305 0.35749492049217224 -0.1478472352027893 -0.999969482421875 0.0 -0.0 0.18985100090503693 0.3920130133628845
-0.0151361133903265 0.35749492049217224 -0.1478472352027893 -0.0 -1.0 -0.0 0.050633400678634644 0.33781301975250244
0.12002646178007126 0.4467473328113556 0.17105455696582794 -0.0 0.999969482421875 -0.0 0.050633400678634644 0.4791100025177002
0.15327653288841248 0.4467473328113556 0.11346398293972015 -0.0 1.0 -0.0 0.14681999385356903 0.4791100025177002
0.15327653288841248 0.35749486088752747 0.11346396803855896 -0.0 -1.0 -0.0 0.14681999385356903 0.3920130133628845
0.12002646178007126 0.35749486088752747 0.17105454206466675 -0.5001373291015625 0.0 0.8659321665763855 0.050633400678634644 0.3920130133628845
0.09426272660493851 0.4467473328113556 0.15617398917675018 -0.5001373291015625 0.0 0.8659321665763855 0.0076025198213756084 0.4791100025177002
0.12751241028308868 0.4467473328113556 0.09858962893486023 0.4999847412109375 0.0 -0.8660237193107605 0.18985100090503693 0.4791100025177002
0.12751241028308868 0.35749486088752747 0.09858961403369904 0.4999847412109375 0.0 -0.8660237193107605 0.18985100090503693 0.3920130133628845
0.09426272660493851 0.35749486088752747 0.156173974275589 -0.5001373291015625 0.0 0.8659321665763855 0.0076025198213756084 0.3920130133628845
0.16684477031230927 0.446747362613678 0.0899614542722702 -0.4999847412109375 0.0 0.8660237193107605 0.050633400678634644 0.4791100025177002
0.20009422302246094 0.446747362613678 0.032370906323194504 0.4999847412109375 0.0 -0.8660237193107605 0.14681999385356903 0.4791100025177002
0.20009422302246094 0.35749489068984985 0.03237089142203331 -0.0 -0.999969482421875 -0.0 0.14681999385356903 0.3920130133628845
0.16684477031230927 0.35749489068984985 0.08996143937110901 -0.4999847412109375 0.0 0.8660237193107605 0.050633400678634644 0.3920130133628845
0.14108066260814667 0.446747362613678 0.0750870406627655 -0.4999847412109375 0.0 0.8660237193107605 0.0076025198213756084 0.4791100025177002
0.17433010041713715 0.446747362613678 0.01749654859304428 0.4999847412109375 0.0 -0.8660237193107605 0.18985100090503693 0.4791100025177002
0.17433010041713715 0.35749489068984985 0.017496533691883087 -0.0 -1.0 -0.0 0.14681999385356903 0.33781301975250244
0.14108066260814667 0.35749489068984985 0.07508702576160431 -0.0 -1.0 -0.0 0.050633400678634644 0.33781301975250244
-0.20133310556411743 0.446747362613678 0.039673686027526855 -0.0 1.0 -0.0 0.050633400678634644 0.4791100025177002
-0.16808366775512695 0.4467473328113556 0.0972641110420227 0.4999542236328125 0.0 0.8660237193107605 0.14681999385356903 0.4791100025177002
-0.16808366775512695 0.35749486088752747 0.09726409614086151 -0.0 -0.999969482421875 -0.0 0.14681999385356903 0.3920130133628845
-0.20133310556411743 0.35749489068984985 0.03967367112636566 -0.4999847412109375 0.0 -0.8660237193107605 0.050633400678634644 0.3920130133628845
-0.17556899785995483 0.446747362613678 0.024799268692731857 -0.4999847412109375 0.0 -0.8660237193107605 0.0076025198213756084 0.4791100025177002
-0.14231956005096436 0.446747362613678 0.08238981664180756 0.4999542236328125 0.0 0.8660237193107605 0.18985100090503693 0.4791100025177002
-0.14231956005096436 0.35749489068984985 0.08238980174064636 0.4999542236328125 0.0 0.8660237193107605 0.18985100090503693 0.3920130133628845
-0.17556899785995483 0.35749489068984985 0.024799253791570663 -0.4999847412109375 0.0 -0.8660237193107605 0.0076025198213756084 0.3920130133628845
-0.15451477468013763 0.4467473328113556 0.12076675891876221 -0.4999847412109375 0.0 -0.8660237193107605 0.050633400678634644 0.4791100025177002
-0.12126533687114716 0.4467473328113556 0.1783573180437088 0.4999847412109375 0.0 0.8660237193107605 0.14681999385356903 0.4791100025177002
-0.12126533687114716 0.35749486088752747 0.1783573031425476 -0.0 -1.0 -0.0 0.14681999385356903 0.3920130133628845
-0.15451540052890778 0.35749486088752747 0.12076674401760101 -0.4999847412109375 0.0 -0.8660237193107605 0.050633400678634644 0.3920130133628845
-0.12875130772590637 0.4467473328113556 0.10589240491390228 -0.4999847412109375 0.0 -0.8660237193107605 0.0076025198213756084 0.4791100025177002
-0.09550123661756516 0.4467473328113556 0.16348296403884888 0.4999847412109375 0.0 0.8660237193107605 0.18985100090503693 0.4791100025177002
-0.0955018475651741 0.35749486088752747 0.16348294913768768 -0.0 -1.0 -0.0 0.14681999385356903 0.33781301975250244
-0.12875130772590637 0.35749486088752747 0.10589239001274109 -0.4999847412109375 0.0 -0.8660237193107605 0.0076025198213756084 0.3920130133628845
0.09659471362829208 0.5019558072090149 -0.07268688827753067 -0.4999542236328125 0.0 -0.8660237193107605 0.1466740071773529 0.17294299602508545
0.12465273588895798 0.5019558072090149 -0.02408728003501892 0.5000457763671875 -3.0518509447574615e-05 0.8659932017326355 0.1466740071773529 0.27285701036453247
0.08635707944631577 0.46622973680496216 -0.0019789584912359715 0.5000152587890625 -6.103701889514923e-05 0.8659932017326355 0.22346000373363495 0.31179600954055786
0.05829917639493942 0.46622973680496216 -0.05057856813073158 -0.4999542236328125 0.0 -0.8660237193107605 0.22346000373363495 0.13354802131652832
0.12697486579418182 0.5019558072090149 -0.09022479504346848 0.8659932017326355 0.0 -0.5000152587890625 0.08606600016355515 0.17290401458740234
0.12697486579418182 0.46622973680496216 -0.09022480249404907 -0.4999542236328125 0.0 -0.8660237193107605 0.08576030284166336 0.13354802131652832
0.15503233671188354 0.46622973680496216 -0.04163145273923874 0.5000457763671875 -3.0518509447574615e-05 0.8659626841545105 0.08576030284166336 0.31179600954055786
0.15503233671188354 0.5019558072090149 -0.04163144528865814 0.8659932017326355 0.0 -0.5000152587890625 0.08606600016355515 0.27306801080703735
-0.12386278808116913 0.5019558072090149 -0.024937745183706284 -0.5002899169921875 -0.00045777764171361923 0.8658406138420105 0.1466740071773529 0.17294299602508545
-0.09580468386411667 0.5019558072090149 -0.07353735715150833 0.5001678466796875 0.00012207403779029846 -0.8659016489982605 0.1466740071773529 0.27285701036453247
-0.057508960366249084 0.46622973680496216 -0.05142897740006447 0.5001068115234375 0.0001831110566854477 -0.8659321665763855 0.22346000373363495 0.31179600954055786
-0.08556705713272095 0.46622973680496216 -0.0028293640352785587 -0.5001678466796875 -0.00015259254723787308 0.8659016489982605 0.22346000373363495 0.13354802131652832
-0.15474975109100342 0.5019558072090149 -0.04278489947319031 -0.0 0.999969482421875 -0.0 0.08606600016355515 0.17290401458740234
-0.15474975109100342 0.46622973680496216 -0.042784906923770905 -0.5001068115234375 0.0 0.8659321665763855 0.08576030284166336 0.13354802131652832
-0.12669165432453156 0.46622973680496216 -0.09138451516628265 0.5001983642578125 9.155552834272385e-05 -0.8659016489982605 0.08576030284166336 0.31179600954055786
-0.12669165432453156 0.5019558072090149 -0.09138450771570206 0.5002899169921875 0.0 -0.8658406138420105 0.08606600016355515 0.27306801080703735
-0.1856277883052826 0.46622973680496216 0.010700187645852566 -0.8660237193107605 0.0 -0.4999847412109375 0.867402970790863 0.9833269994705915
0.07850002497434616 0.44674739241600037 -0.17759594321250916 -0.0 0.0 -1.0 0.050633400678634644 0.4791100025177002
0.07850002497434616 0.44674739241600037 -0.17759594321250916 0.999969482421875 0.0 -0.0 0.050633400678634644 0.4791100025177002
0.07850002497434616 0.35749492049217224 -0.17759595811367035 -0.0 0.0 -1.0 0.050633400678634644 0.3920130133628845
0.07850002497434616 0.35749492049217224 -0.17759595811367035 -0.0 -1.0 -0.0 0.050633400678634644 0.3920130133628845
-0.015749594196677208 -0.2038114219903946 0.03919835016131401 0.4999847412109375 0.0 0.8660237193107605 0.7530710101127625 0.11207902431488037
-0.015749594196677208 -0.5509732961654663 0.039198294281959534 0.4999847412109375 0.0 0.8660237193107605 0.9796350002288818 0.11207902431488037
-0.09288336336612701 0.4662298262119293 -0.14994174242019653 -0.0 0.0 -1.0 0.7539209723472595 0.9833269994705915
-0.09288336336612701 0.4662298262119293 -0.14994174242019653 -0.8660237193107605 0.0 -0.4999847412109375 0.7539209723472595 0.9833269994705915
-0.09288336336612701 -0.2822347581386566 -0.14994186162948608 -0.0 0.0 -1.0 0.7539209723472595 0.3613319993019104
-0.09288336336612701 -0.2822347581386566 -0.14994186162948608 -0.8660237193107605 0.0 -0.4999847412109375 0.7539209723472595 0.3613319993019104
-0.0290254857391119 -0.5085760354995728 -0.0487724207341671 -0.0 0.0 -1.0 0.19717399775981903 0.8655889928340912
-0.0290254857391119 -0.5085760354995728 -0.0487724207341671 -0.8660237193107605 0.0 -0.4999847412109375 0.19717399775981903 0.8655889928340912
-0.0290254857391119 -0.5938833951950073 -0.04877243563532829 -0.0 0.0 -1.0 0.2785109877586365 0.8655889928340912
-0.0290254857391119 -0.5938833951950073 -0.04877243563532829 -0.0 -1.0 -0.0 0.06307650357484818 0.9682679995894432
0.0005790770519524813 -0.32572630047798157 -0.13432349264621735 -0.0 -1.0 -0.0 0.19433699548244476 0.6314719915390015
0.0005790770519524813 -0.32572630047798157 -0.13432349264621735 0.382702112197876 0.0 -0.9238563179969788 0.7556340098381042 0.2716060280799866
-0.09983412176370621 -0.32572630047798157 -0.09272650629281998 -0.0 -1.0 -0.0 0.16840200126171112 0.573403000831604
-0.09983412176370621 -0.32572630047798157 -0.09272650629281998 -0.9238563179969788 0.0 -0.382671594619751 0.8114079833030701 0.2716060280799866
0.0005790770519524813 -0.2711304724216461 -0.13432347774505615 -0.382702112197876 0.0 -0.9238563179969788 0.7556340098381042 0.3210369944572449
0.027918720617890358 0.5019558072090149 0.17135471105575562 -0.0 0.0 1.0 0.08606600016355515 0.17290401458740234
0.027918720617890358 0.5019558072090149 0.17135471105575562 0.999969482421875 0.0 -0.0 0.08606600016355515 0.17290401458740234
-0.028197363018989563 0.5019558072090149 0.17135471105575562 -0.0 0.0 1.0 0.08606600016355515 0.27306801080703735
-0.028197363018989563 0.5019558072090149 0.17135471105575562 -1.0 0.0 -0.0 0.08606600016355515 0.27306801080703735
-0.15451477468013763 0.4467473328113556 0.12076675891876221 -0.8660237193107605 0.0 0.4999847412109375 0.050633400678634644 0.4791100025177002
-0.15451477468013763 0.4467473328113556 0.12076675891876221 -0.0 1.0 -0.0 0.050633400678634644 0.4791100025177002
-0.12126533687114716 0.4467473328113556 0.1783573180437088 -0.8660237193107605 0.0 0.4999847412109375 0.14681999385356903 0.4791100025177002
-0.12126533687114716 0.4467473328113556 0.1783573180437088 -0.0 1.0 -0.0 0.14681999385356903 0.4791100025177002
0.20009422302246094 0.35749489068984985 0.03237089142203331 0.8660237193107605 0.0 0.4999847412109375 0.14681999385356903 0.3920130133628845
0.20009422302246094 0.35749489068984985 0.03237089142203331 0.4999847412109375 0.0 -0.8660237193107605 0.14681999385356903 0.3920130133628845
0.16684477031230927 0.35749489068984985 0.08996143937110901 0.8660237193107605 0.0 0.4999847412109375 0.050633400678634644 0.3920130133628845
0.16684477031230927 0.35749489068984985 0.08996143937110901 -0.0 -1.0 -0.0 0.050633400678634644 0.3920130133628845
-0.20133310556411743 0.446747362613678 0.039673686027526855 -0.8660237193107605 0.0 0.4999847412109375 0.050633400678634644 0.4791100025177002
-0.20133310556411743 0.446747362613678 0.039673686027526855 -0.4999847412109375 0.0 -0.8660237193107605 0.050633400678634644 0.4791100025177002
-0.16808366775512695 0.4467473328113556 0.0972641110420227 -0.8660237193107605 0.0 0.4999847412109375 0.14681999385356903 0.4791100025177002
-0.16808366775512695 0.4467473328113556 0.0972641110420227 -0.0 0.999969482421875 -0.0 0.14681999385356903 0.4791100025177002
-0.12386278808116913 0.5019558072090149 -0.024937745183706284 -0.0 1.0 -0.0 0.1466740071773529 0.17294299602508545
-0.12386278808116913 0.5019558072090149 -0.024937745183706284 0.5442366003990173 0.7778252363204956 0.31418806314468384 0.1466740071773529 0.17294299602508545
-0.09580468386411667 0.5019558072090149 -0.07353735715150833 -0.0 1.0 -0.0 0.1466740071773529 0.27285701036453247
-0.09580468386411667 0.5019558072090149 -0.07353735715150833 0.5442366003990173 0.7778252363204956 0.31418806314468384 0.1466740071773529 0.27285701036453247
0.09659471362829208 0.5019558072090149 -0.07268688827753067 -0.0 1.0 -0.0 0.1466740071773529 0.17294299602508545
0.09659471362829208 0.5019558072090149 -0.07268688827753067 -0.5442366003990173 0.7778252363204956 0.31418806314468384 0.1466740071773529 0.17294299602508545
0.12465273588895798 0.5019558072090149 -0.02408728003501892 -0.0 1.0 -0.0 0.1466740071773529 0.27285701036453247
0.12465273588895798 0.5019558072090149 -0.02408728003501892 -0.5442366003990173 0.7778252363204956 0.31418806314468384 0.1466740071773529 0.27285701036453247
-0.08163537085056305 0.35749492049217224 -0.17759595811367035 -0.0 0.0 -1.0 0.14681999385356903 0.3920130133628845
-0.08163537085056305 0.35749492049217224 -0.17759595811367035 -1.0 0.0 -0.0 0.14681999385356903 0.3920130133628845
-0.0151361133903265 0.35749492049217224 -0.17759595811367035 -0.0 0.0 -1.0 0.050633400678634644 0.3920130133628845
-0.0151361133903265 0.35749492049217224 -0.17759595811367035 -0.0 -1.0 -0.0 0.050633400678634644 0.3920130133628845
0.15327653288841248 0.35749486088752747 0.11346396803855896 0.8660237193107605 0.0 0.4999847412109375 0.14681999385356903 0.3920130133628845
0.15327653288841248 0.35749486088752747 0.11346396803855896 0.4999847412109375 0.0 -0.8660237193107605 0.14681999385356903 0.3920130133628845
0.12002646178007126 0.35749486088752747 0.17105454206466675 0.8660237193107605 0.0 0.4999847412109375 0.050633400678634644 0.3920130133628845
0.12002646178007126 0.35749486088752747 0.17105454206466675 -0.0 -0.999969482421875 -0.0 0.050633400678634644 0.3920130133628845
0.03504041209816933 -0.5085760354995728 0.06219453364610672 0.8660237193107605 0.0 0.4999847412109375 0.19717399775981903 0.6979910135269165
0.03504041209816933 -0.5085760354995728 0.06219453364610672 -0.0 0.0 1.0 0.19717399775981903 0.6979910135269165
0.06707333028316498 -0.5085760354995728 0.006711029447615147 0.8660237193107605 0.0 0.4999847412109375 0.19717399775981903 0.7538570016622543
0.06707333028316498 -0.5085760354995728 0.006711029447615147 0.8660237193107605 0.0 -0.4999847412109375 0.19717399775981903 0.7538570016622543
0.09260472655296326 0.4662298262119293 -0.14994174242019653 0.8660237193107605 0.0 -0.4999847412109375 0.640438973903656 0.9833269994705915
0.09260472655296326 0.4662298262119293 -0.14994174242019653 -0.0 0.0 -1.0 0.640438973903656 0.9833269994705915
0.09260472655296326 -0.2822347581386566 -0.14994186162948608 0.8660237193107605 0.0 -0.4999847412109375 0.640438973903656 0.3613319993019104
0.09260472655296326 -0.2822347581386566 -0.14994186162948608 -0.0 0.0 -1.0 0.640438973903656 0.3613319993019104
-0.15474975109100342 0.5019558072090149 -0.04278489947319031 -0.8660237193107605 0.0 -0.4999847412109375 0.08606600016355515 0.17290401458740234
-0.15474975109100342 0.5019558072090149 -0.04278489947319031 -0.5001678466796875 -0.00012207403779029846 0.8659016489982605 0.08606600016355515 0.17290401458740234
-0.12669165432453156 0.5019558072090149 -0.09138450771570206 -0.8660237193107605 0.0 -0.4999847412109375 0.08606600016355515 0.27306801080703735
-0.12669165432453156 0.5019558072090149 -0.09138450771570206 -0.0 1.0 -0.0 0.08606600016355515 0.27306801080703735
-0.03450693190097809 -0.2038114219903946 0.0067110792733728886 -0.8659932017326355 0.0 0.5000152587890625 0.7530710101127625 0.2277190089225769
-0.03450693190097809 -0.5509732961654663 0.006711022462695837 -0.8659932017326355 0.0 0.5000152587890625 0.9796350002288818 0.2277190089225769
-0.09983412176370621 -0.2711304724216461 -0.09272649884223938 -0.382702112197876 0.0 -0.9238563179969788 0.8114079833030701 0.3210369944572449
0.03504041209816933 -0.5938833951950073 0.062194518744945526 -0.0 -1.0 -0.0 0.03254169970750809 0.9130019992589951
0.03504041209816933 -0.5938833951950073 0.062194518744945526 -0.0 0.0 1.0 0.2785109877586365 0.6979910135269165
0.06707333028316498 -0.5938833951950073 0.006711015477776527 -0.0 -1.0 -0.0 0.017274299636483192 0.9406349994242191
0.06707333028316498 -0.5938833951950073 0.006711015477776527 0.8660237193107605 0.0 0.4999847412109375 0.2785109877586365 0.7538570016622543
0.03504040092229843 -0.5085760354995728 -0.0487724207341671 0.8660237193107605 0.0 -0.4999847412109375 0.19717399775981903 0.8097230046987534
0.03504040092229843 -0.5085760354995728 -0.0487724207341671 -0.0 0.0 -1.0 0.19717399775981903 0.8097230046987534
0.03504040092229843 -0.5938833951950073 -0.04877243563532829 0.8660237193107605 0.0 -0.4999847412109375 0.2785109877586365 0.8097230046987534
0.03504040092229843 -0.5938833951950073 -0.04877243563532829 -0.0 -1.0 -0.0 0.03254169970750809 0.9682679995894432
0.14258435368537903 -0.2711305022239685 0.007686449680477381 0.9238563179969788 0.0 -0.382671594619751 0.6440849900245667 0.3210369944572449
0.14258435368537903 -0.32572633028030396 0.007686440832912922 0.9238563179969788 0.0 0.382671594619751 0.6440849900245667 0.2716060280799866
0.14258435368537903 -0.32572633028030396 0.007686440832912922 -0.0 -1.0 -0.0 0.10579100251197815 0.7135930061340332
0.10099239647388458 -0.32572630047798157 -0.09272650629281998 -0.0 -1.0 -0.0 0.16840200126171112 0.6895399987697601
0.10099239647388458 -0.32572630047798157 -0.09272650629281998 0.382702112197876 0.0 -0.9238563179969788 0.6998590230941772 0.2716060280799866
0.027918720617890358 0.46622970700263977 0.17135471105575562 1.0 0.0 -0.0 0.08576030284166336 0.13354802131652832
-0.0290254857391119 -0.5938833951950073 0.062194518744945526 -0.8660237193107605 0.0 0.4999847412109375 0.2785109877586365 0.9773210007697344
-0.0290254857391119 -0.5938833951950073 0.062194518744945526 -0.0 0.0 1.0 0.2785109877586365 0.6421250104904175
-0.06105821952223778 -0.5938833951950073 0.006711015477776527 -0.8660237193107605 0.0 0.4999847412109375 0.2785109877586365 0.9214550033211708
-0.06105821952223778 -0.5938833951950073 0.006711015477776527 -0.0 -1.0 -0.0 0.07834380120038986 0.9406349994242191
-0.028197363018989563 0.46622970700263977 0.0920560359954834 -0.999969482421875 0.0 -0.0 0.22346000373363495 0.31179600954055786
-0.028197363018989563 0.5019558072090149 0.13627901673316956 -1.0 0.0 -0.0 0.1466740071773529 0.27285701036453247
-0.028197363018989563 0.5019558072090149 0.13627901673316956 -0.0 0.7778557538986206 -0.6284066438674927 0.1466740071773529 0.27285701036453247
-0.15451540052890778 0.35749486088752747 0.12076674401760101 -0.8660237193107605 0.0 0.4999847412109375 0.050633400678634644 0.3920130133628845
-0.15451540052890778 0.35749486088752747 0.12076674401760101 -0.0 -1.0 -0.0 0.050633400678634644 0.3920130133628845
-0.20133310556411743 0.35749489068984985 0.03967367112636566 -0.8660237193107605 0.0 0.4999847412109375 0.050633400678634644 0.3920130133628845
-0.20133310556411743 0.35749489068984985 0.03967367112636566 -0.0 -1.0 -0.0 0.050633400678634644 0.3920130133628845
0.05829917639493942 0.46622973680496216 -0.05057856813073158 -0.5442366003990173 0.7778252363204956 0.31418806314468384 0.22346000373363495 0.17279702425003052
-0.08556705713272095 0.46622973680496216 -0.0028293640352785587 0.5442366003990173 0.7778252363204956 0.31418806314468384 0.22346000373363495 0.17279702425003052
0.15503233671188354 0.46622973680496216 -0.04163145273923874 0.8659932017326355 0.0 -0.5000152587890625 0.04840109869837761 0.2734900116920471
0.15503233671188354 0.5019558072090149 -0.04163144528865814 0.5000762939453125 0.0 0.8659626841545105 0.08606600016355515 0.27306801080703735
0.15503233671188354 0.5019558072090149 -0.04163144528865814 -0.0 1.0 -0.0 0.08606600016355515 0.27306801080703735
0.12002646178007126 0.4467473328113556 0.17105455696582794 0.8660237193107605 0.0 0.4999847412109375 0.050633400678634644 0.4791100025177002
0.12002646178007126 0.4467473328113556 0.17105455696582794 -0.5001373291015625 0.0 0.8659321665763855 0.050633400678634644 0.4791100025177002
0.15327653288841248 0.4467473328113556 0.11346398293972015 0.8660237193107605 0.0 0.4999847412109375 0.14681999385356903 0.4791100025177002
0.15327653288841248 0.4467473328113556 0.11346398293972015 0.4999847412109375 0.0 -0.8660237193107605 0.14681999385356903 0.4791100025177002
0.16684477031230927 0.446747362613678 0.0899614542722702 -0.0 1.0 -0.0 0.050633400678634644 0.4791100025177002
0.16684477031230927 0.446747362613678 0.0899614542722702 0.8660237193107605 0.0 0.4999847412109375 0.050633400678634644 0.4791100025177002
0.20009422302246094 0.446747362613678 0.032370906323194504 -0.0 0.999969482421875 -0.0 0.14681999385356903 0.4791100025177002
0.20009422302246094 0.446747362613678 0.032370906323194504 0.8660237193107605 0.0 0.4999847412109375 0.14681999385356903 0.4791100025177002
-0.0151361133903265 0.44674739241600037 -0.17759594321250916 -0.0 0.0 -1.0 0.050633400678634644 0.4791100025177002
-0.0151361133903265 0.44674739241600037 -0.17759594321250916 0.999969482421875 0.0 -0.0 0.050633400678634644 0.4791100025177002
-0.08163537085056305 0.44674739241600037 -0.17759594321250916 -0.0 0.0 -1.0 0.14681999385356903 0.4791100025177002
-0.08163537085056305 0.44674739241600037 -0.17759594321250916 -0.0 1.0 -0.0 0.14681999385356903 0.4791100025177002
0.04052168130874634 -0.2038114219903946 0.0067110792733728886 0.4999847412109375 0.0 0.8660237193107605 0.7530710101127625 0.15833497047424316
0.04052168130874634 -0.5509732961654663 0.006711022462695837 0.4999847412109375 0.0 0.8660237193107605 0.9796350002288818 0.15833497047424316
-0.09983412176370621 -0.32572636008262634 0.10809943825006485 -0.382641077041626 0.0 0.9238563179969788 0.9229559898376465 0.2716060280799866
-0.09983412176370621 -0.32572636008262634 0.10809943825006485 -0.9238563179969788 0.0 0.382671594619751 0.9229559898376465 0.2716060280799866
0.0005790770519524813 -0.32572636008262634 0.14969012141227722 -0.382641077041626 0.0 0.9238563179969788 0.9787300229072571 0.2716060280799866
0.0005790770519524813 -0.32572636008262634 0.14969012141227722 -0.0 -1.0 -0.0 0.017246300354599953 0.6314719915390015
-0.09983412176370621 -0.2711305320262909 0.10809944570064545 -0.382641077041626 0.0 0.9238563179969788 0.9229559898376465 0.3210369944572449
-0.15474975109100342 0.46622973680496216 -0.042784906923770905 -0.8660237193107605 0.0 -0.4999847412109375 0.04840109869837761 0.17282599210739136
-0.028197363018989563 0.46622970700263977 0.17135471105575562 -1.0 0.0 -0.0 0.08576030284166336 0.31179600954055786
0.09260472655296326 0.46622976660728455 0.1713358610868454 -0.0 0.0 1.0 0.4134739935398102 0.9833269994705915
0.09260472655296326 0.46622976660728455 0.1713358610868454 0.8659932017326355 0.0 0.4999847412109375 0.4134739935398102 0.9833269994705915
0.09260472655296326 -0.2822348177433014 0.17133574187755585 -0.0 0.0 1.0 0.4134739935398102 0.3613319993019104
0.09260472655296326 -0.2822348177433014 0.17133574187755585 0.8659932017326355 0.0 0.4999847412109375 0.4134739935398102 0.3613319993019104
-0.06105821952223778 -0.5085760354995728 0.006711029447615147 -0.8660237193107605 0.0 -0.4999847412109375 0.19717399775981903 0.9214550033211708
-0.06105821952223778 -0.5085760354995728 0.006711029447615147 -0.8660237193107605 0.0 0.4999847412109375 0.19717399775981903 0.9214550033211708
-0.14142674207687378 -0.32572633028030396 0.007686440832912922 -0.9238563179969788 0.0 -0.382671594619751 0.8671820163726807 0.2716060280799866
-0.14142674207687378 -0.32572633028030396 0.007686440832912922 -0.9238563179969788 0.0 0.382671594619751 0.8671820163726807 0.2716060280799866
0.0005790770519524813 -0.2711305320262909 0.14969013631343842 -0.382641077041626 0.0 0.9238563179969788 0.9787300229072571 0.3210369944572449
-0.09288336336612701 0.46622976660728455 0.1713358610868454 -0.8659932017326355 0.0 0.4999847412109375 0.9808859825134277 0.9833269994705915
-0.09288336336612701 0.46622976660728455 0.1713358610868454 -0.0 0.0 1.0 0.29999101161956787 0.9833269994705915
-0.09288336336612701 -0.2822348177433014 0.17133574187755585 -0.8659932017326355 0.0 0.4999847412109375 0.9808859825134277 0.3613319993019104
-0.09288336336612701 -0.2822348177433014 0.17133574187755585 -0.0 0.0 1.0 0.29999101161956787 0.3613319993019104
-0.0290254857391119 -0.5085760354995728 0.06219453364610672 -0.8660237193107605 0.0 0.4999847412109375 0.19717399775981903 0.9773210007697344
-0.0290254857391119 -0.5085760354995728 0.06219453364610672 -0.0 0.0 1.0 0.19717399775981903 0.6421250104904175
0.027918720617890358 0.5019558072090149 0.13627901673316956 0.999969482421875 0.0 -0.0 0.1466740071773529 0.17294299602508545
0.027918720617890358 0.5019558072090149 0.13627901673316956 -0.0 0.7778557538986206 -0.6284066438674927 0.1466740071773529 0.17294299602508545
0.027918720617890358 0.46622970700263977 0.0920560359954834 1.0 0.0 -0.0 0.22346000373363495 0.13354802131652832
0.12697486579418182 0.5019558072090149 -0.09022479504346848 -0.4999542236328125 0.0 -0.8660237193107605 0.08606600016355515 0.17290401458740234
0.12697486579418182 0.5019558072090149 -0.09022479504346848 -0.0 1.0 -0.0 0.08606600016355515 0.17290401458740234
0.12697486579418182 0.46622973680496216 -0.09022480249404907 0.8659932017326355 0.0 -0.5000152587890625 0.04840109869837761 0.17282599210739136
0.012000766582787037 0.35749492049217224 -0.17759595811367035 -0.0 0.0 -1.0 0.14681999385356903 0.3920130133628845
0.012000766582787037 0.35749492049217224 -0.17759595811367035 -1.0 0.0 -0.0 0.14681999385356903 0.3920130133628845
0.10099239647388458 -0.32572636008262634 0.10809943825006485 0.9238563179969788 0.0 0.382671594619751 0.5883110165596008 0.2716060280799866
0.10099239647388458 -0.32572636008262634 0.10809943825006485 0.382641077041626 0.0 0.9238563179969788 0.5883110165596008 0.2716060280799866
-0.12669165432453156 0.46622973680496216 -0.09138451516628265 -0.8660237193107605 0.0 -0.4999847412109375 0.04840109869837761 0.2734900116920471
0.10099239647388458 -0.2711305320262909 0.10809944570064545 0.9238563179969788 0.0 0.382671594619751 0.5883110165596008 0.3210369944572449
-0.12126533687114716 0.35749486088752747 0.1783573031425476 -0.8660237193107605 0.0 0.4999847412109375 0.14681999385356903 0.3920130133628845
-0.12126533687114716 0.35749486088752747 0.1783573031425476 0.4999847412109375 0.0 0.8660237193107605 0.14681999385356903 0.3920130133628845
-0.16808366775512695 0.35749486088752747 0.09726409614086151 -0.8660237193107605 0.0 0.4999847412109375 0.14681999385356903 0.3920130133628845
-0.16808366775512695 0.35749486088752747 0.09726409614086151 0.4999542236328125 0.0 0.8660237193107605 0.14681999385356903 0.3920130133628845
0.08635707944631577 0.46622973680496216 -0.0019789584912359715 -0.5442366003990173 0.7778252363204956 0.31418806314468384 0.22346000373363495 0.2734609842300415
-0.057508960366249084 0.46622973680496216 -0.05142897740006447 0.5442366003990173 0.7778252363204956 0.31418806314468384 0.22346000373363495 0.2734609842300415
0.02176458202302456 -0.2038114219903946 -0.025776192545890808 -0.4999847412109375 0.0 -0.8660237193107605 0.7530710101127625 0.18146300315856934
0.02176458202302456 -0.5509732961654663 -0.025776248425245285 -0.4999847412109375 0.0 -0.8660237193107605 0.9796350002288818 0.18146300315856934
0.18534864485263824 0.46622979640960693 0.010700187645852566 0.8659932017326355 0.0 0.4999847412109375 0.5269560217857361 0.9833269994705915
0.18534864485263824 0.46622979640960693 0.010700187645852566 0.8660237193107605 0.0 -0.4999847412109375 0.5269560217857361 0.9833269994705915
0.18534864485263824 -0.282234787940979 0.010700065642595291 0.8659932017326355 0.0 0.4999847412109375 0.5269560217857361 0.3613319993019104
0.18534864485263824 -0.282234787940979 0.010700065642595291 -0.0 -1.0 -0.0 0.103023000061512 0.9109909981489182
-0.14142674207687378 -0.2711305022239685 0.007686449680477381 -0.9238563179969788 0.0 -0.382671594619751 0.8671820163726807 0.3210369944572449
0.012000766582787037 0.44674739241600037 -0.17759594321250916 -0.0 0.0 -1.0 0.14681999385356903 0.4791100025177002
0.012000766582787037 0.44674739241600037 -0.17759594321250916 -0.999969482421875 0.0 -0.0 0.14681999385356903 0.4791100025177002
0.10099239647388458 -0.2711304724216461 -0.09272649884223938 0.9238563179969788 0.0 -0.382671594619751 0.6998590230941772 0.3210369944572449
-0.1856277883052826 -0.282234787940979 0.010700065642595291 -0.8660237193107605 0.0 -0.4999847412109375 0.867402970790863 0.3613319993019104
-0.1856277883052826 -0.282234787940979 0.010700065642595291 -0.8659932017326355 0.0 0.4999847412109375 0.867402970790863 0.3613319993019104
-0.1856277883052826 0.46622973680496216 0.010700187645852566 -0.8659932017326355 0.0 0.4999847412109375 0.867402970790863 0.9833269994705915
-0.1856277883052826 0.46622973680496216 0.010700187645852566 -0.0 1.0 -0.0 0.103023000061512 0.7392370104789734
0.12751241028308868 0.35749486088752747 0.09858961403369904 -0.0 -1.0 -0.0 0.14681999385356903 0.33781301975250244
0.12751241028308868 0.4467473328113556 0.09858962893486023 -0.0 0.999969482421875 -0.0 0.14681999385356903 0.5333099961280823
0.09426272660493851 0.4467473328113556 0.15617398917675018 -0.0 1.0 -0.0 0.050633400678634644 0.5333099961280823
0.0005790770519524813 -0.32572630047798157 -0.12301293760538101 0.382702112197876 0.0 0.9238563179969788 0.7556340098381042 0.2716060280799866
0.0005790770519524813 -0.32572630047798157 -0.12301293760538101 -0.0 -1.0 -0.0 0.18728399276733398 0.6314719915390015
0.0005790770519524813 -0.24764665961265564 -0.12301292270421982 -0.382702112197876 0.0 0.9238563179969788 0.7556340098381042 0.3422960042953491
0.09426272660493851 0.35749486088752747 0.156173974275589 -0.0 -1.0 -0.0 0.050633400678634644 0.33781301975250244
-0.0151361133903265 0.35749492049217224 -0.1478472352027893 0.999969482421875 0.0 -0.0 0.0076025198213756084 0.3920130133628845
-0.0955018475651741 0.35749486088752747 0.16348294913768768 0.4999847412109375 0.0 0.8660237193107605 0.18985100090503693 0.3920130133628845
-0.12875130772590637 0.4467473328113556 0.10589240491390228 -0.0 1.0 -0.0 0.050633400678634644 0.5333099961280823
0.09299381077289581 -0.24764665961265564 -0.08472970873117447 -0.9238563179969788 0.0 0.382671594619751 0.6998590230941772 0.3422960042953491
0.09299381077289581 -0.32572633028030396 -0.08472972363233566 -0.9238563179969788 0.0 0.382671594619751 0.6998590230941772 0.2716060280799866
0.09299381077289581 -0.32572633028030396 -0.08472972363233566 -0.0 -0.999969482421875 -0.0 0.16341499984264374 0.6849150061607361
0.09299387782812119 -0.32572636008262634 0.10009639710187912 -0.0 -1.0 -0.0 0.04816779866814613 0.6849150061607361
0.09299387782812119 -0.32572636008262634 0.10009639710187912 -0.382702112197876 0.0 -0.9238563179969788 0.5883110165596008 0.2716060280799866
0.13127321004867554 -0.32572633028030396 0.007686440832912922 -0.9238563179969788 0.0 0.382671594619751 0.6440849900245667 0.2716060280799866
0.13127321004867554 -0.32572633028030396 0.007686440832912922 -0.0 -1.0 -0.0 0.10579100251197815 0.7070519924163818
0.13127321004867554 -0.24764667451381683 0.007686453405767679 -0.9238563179969788 0.0 -0.382671594619751 0.6440849900245667 0.3422960042953491
0.0005790770519524813 -0.24764670431613922 0.1383795589208603 0.382702112197876 0.0 -0.9238563179969788 0.9787300229072571 0.3422960042953491
0.0005790770519524813 -0.32572636008262634 0.1383795440196991 -0.0 -1.0 -0.0 0.024299299344420433 0.6314719915390015
0.0005790770519524813 -0.32572636008262634 0.1383795440196991 0.382702112197876 0.0 -0.9238563179969788 0.9787300229072571 0.2716060280799866
0.012000766582787037 0.35749492049217224 -0.1478472352027893 -0.0 -1.0 -0.0 0.14681999385356903 0.33781301975250244
0.14108066260814667 0.35749489068984985 0.07508702576160431 -0.4999847412109375 0.0 0.8660237193107605 0.0076025198213756084 0.3920130133628845
-0.09183547645807266 -0.32572636008262634 0.10009639710187912 -0.0 -1.0 -0.0 0.04816779866814613 0.5780290067195892
-0.09183547645807266 -0.32572636008262634 0.10009639710187912 0.382702112197876 0.0 -0.9238563179969788 0.9229559898376465 0.2716060280799866
-0.14231956005096436 0.35749489068984985 0.08238980174064636 -0.0 -0.999969482421875 -0.0 0.14681999385356903 0.33781301975250244
-0.14231956005096436 0.446747362613678 0.08238981664180756 -0.0 1.0 -0.0 0.14681999385356903 0.5333099961280823
-0.12875130772590637 0.35749486088752747 0.10589239001274109 -0.0 -1.0 -0.0 0.050633400678634644 0.33781301975250244
-0.17556899785995483 0.446747362613678 0.024799268692731857 -0.0 1.0 -0.0 0.050633400678634644 0.5333099961280823
0.17433010041713715 0.446747362613678 0.01749654859304428 -0.0 1.0 -0.0 0.14681999385356903 0.5333099961280823
0.07850002497434616 0.44674739241600037 -0.1478472203016281 -0.0 1.0 -0.0 0.050633400678634644 0.5333099961280823
0.17433010041713715 0.35749489068984985 0.017496533691883087 0.4999847412109375 0.0 -0.8660237193107605 0.18985100090503693 0.3920130133628845
0.14108066260814667 0.446747362613678 0.0750870406627655 -0.0 1.0 -0.0 0.050633400678634644 0.5333099961280823
-0.17556899785995483 0.35749489068984985 0.024799253791570663 -0.0 -1.0 -0.0 0.050633400678634644 0.33781301975250244
0.07850002497434616 0.35749492049217224 -0.1478472352027893 -0.0 -1.0 -0.0 0.050633400678634644 0.33781301975250244
0.012000766582787037 0.44674739241600037 -0.1478472203016281 -0.0 1.0 -0.0 0.14681999385356903 0.5333099961280823
-0.13011495769023895 -0.32572633028030396 0.007686440832912922 0.9238563179969788 0.0 -0.382671594619751 0.8671820163726807 0.2716060280799866
-0.13011495769023895 -0.32572633028030396 0.007686440832912922 -0.0 -1.0 -0.0 0.10579100251197815 0.5558919906616211
-0.13011495769023895 -0.24764667451381683 0.007686453405767679 0.9238563179969788 0.0 -0.382671594619751 0.8671820163726807 0.3422960042953491
-0.09550123661756516 0.4467473328113556 0.16348296403884888 -0.0 0.999969482421875 -0.0 0.14681999385356903 0.5333099961280823
-0.08163537085056305 0.44674739241600037 -0.1478472203016281 -0.0 1.0 -0.0 0.14681999385356903 0.5333099961280823
-0.08163537085056305 0.35749492049217224 -0.1478472352027893 -0.0 -1.0 -0.0 0.14681999385356903 0.33781301975250244
-0.0151361133903265 0.44674739241600037 -0.1478472203016281 -0.0 1.0 -0.0 0.050633400678634644 0.5333099961280823
-0.09183547645807266 -0.24764665961265564 -0.08472970873117447 0.382702112197876 0.0 0.9238563179969788 0.8114079833030701 0.3422960042953491
-0.09183547645807266 -0.32572633028030396 -0.08472972363233566 -0.0 -1.0 -0.0 0.16341499984264374 0.5780290067195892
-0.09183547645807266 -0.32572633028030396 -0.08472972363233566 0.382702112197876 0.0 0.9238563179969788 0.8114079833030701 0.2716060280799866
-0.09183547645807266 -0.24764668941497803 0.10009641200304031 0.9238563179969788 0.0 -0.382671594619751 0.9229559898376465 0.3422960042953491
0.09299387782812119 -0.24764668941497803 0.10009641200304031 -0.9238563179969788 0.0 -0.382671594619751 0.5883110165596008 0.3422960042953491
298 264 262
264 298 297
263 255 253
255 263 265
254 290 288
290 254 256
289 193 191
193 289 8
192 144 142
144 192 194
143 296 135
296 143 145
3 1 2
1 299 0
3 299 1
4 299 3
6 291 7
291 10 9
6 10 291
5 10 6
216 258 218
258 216 266
211 279 276
279 211 43
259 46 153
46 259 292
221 252 158
252 221 220
270 156 215
156 270 268
140 245 244
245 140 141
151 44 214
44 151 45
183 232 185
232 183 234
247 39 260
39 247 40
267 203 188
203 267 217
24 199 200
199 24 19
248 250 246
250 248 261
29 204 202
204 149 209
29 149 204
219 149 29
179 240 181
240 179 242
41 277 42
277 41 49
278 195 197
195 278 251
280 159 223
159 280 161
205 187 32
187 205 189
282 167 225
167 282 169
47 323 48
323 47 337
48 319 249
319 48 323
249 313 50
313 249 319
50 316 212
316 50 313
212 312 213
312 212 316
213 304 150
304 213 312
150 344 152
344 150 304
152 337 47
337 152 344
336 346 56
346 336 338
324 318 320
318 324 64
57 66 314
66 57 65
58 317 59
317 58 347
315 310 311
310 315 67
60 305 61
305 60 68
303 343 345
343 303 69
62 63 55
63 62 70
231 175 177
175 231 272
17 155 157
155 17 18
13 269 12
269 13 222
162 309 160
309 162 339
238 332 236
332 238 329
274 136 138
136 274 293
243 342 79
342 243 340
16 11 14
11 16 15
208 190 34
190 208 206
163 237 165
237 163 239
72 275 74
275 72 294
321 139 334
139 321 78
73 137 71
137 73 77
76 330 75
330 76 335
148 207 36
207 148 146
84 180 85
180 84 80
341 182 86
182 341 81
307 241 83
241 307 82
54 154 53
154 54 201
198 171 173
171 198 131
92 184 93
184 92 235
300 186 306
186 300 89
94 233 91
233 94 90
23 286 287
286 23 22
170 328 103
328 170 326
100 164 331
164 100 96
101 166 102
166 101 97
322 95 99
95 322 98
52 210 51
210 52 295
284 176 227
176 284 178
108 283 109
283 108 104
325 226 333
226 325 105
110 168 107
168 110 106
116 281 308
281 116 112
117 224 327
224 117 113
118 111 115
111 118 114
285 172 228
172 285 174
26 20 25
20 26 21
88 302 87
302 88 301
120 125 230
125 120 121
122 271 124
271 122 119
30 147 38
147 30 257
128 133 134
133 128 129
130 196 132
196 130 127
229 123 126
123 229 273
35 31 33
31 27 28
27 35 37
31 35 27
MATERIALS 1
09 - Default
MATERIAL 09 - Default
1.0 1.0 1.0 1.0
1.0 1.0 1.0 1.0
1.0 1.0 1.0 1.0 50
0.0 0.0 0.0 1.0
TEXTURES 1
ProjectApollo\SubSatellite.dds
